<svg width="24" height="24" xmlns="http://www.w3.org/2000/svg">
 <title>Microsoft Outlook icon</title>

 <g>
  <title>background</title>
  <rect fill="none" id="canvas_background" height="402" width="582" y="-1" x="-1"/>
 </g>
 <g>
  <title>Layer 1</title>
  <path fill="#ffffff" id="svg_1" d="m24,7.387l0,10.478c0,0.23 -0.08,0.424 -0.238,0.576c-0.158,0.154 -0.352,0.23 -0.58,0.23l-8.547,0l0,-6.959l1.6,1.229c0.102,0.085 0.229,0.126 0.379,0.126c0.148,0 0.277,-0.041 0.389,-0.127l6.997,-5.553zm-9.365,-2.021l8.547,0c0.211,0 0.393,0.063 0.543,0.192c0.15,0.128 0.234,0.3 0.248,0.51l-7.369,5.876l-1.969,-1.549l0,-5.029zm-1.231,-4.502l0,22.271l-13.404,-2.316l0,-17.575l13.406,-2.38l-0.002,0zm-2.818,15.682c-0.02,-1.133 -0.313,-2.072 -0.879,-2.814c-0.555,-0.74 -1.275,-1.131 -2.131,-1.164c-0.824,0.033 -1.529,0.423 -2.1,1.164c-0.57,0.742 -0.855,1.682 -0.87,2.814c0.015,1.117 0.315,2.047 0.885,2.791c0.571,0.74 1.274,1.133 2.101,1.176c0.855,-0.035 1.574,-0.424 2.145,-1.17c0.57,-0.748 0.87,-1.68 0.885,-2.797l-0.036,0zm-3.12,-2.482c0.431,0.02 0.794,0.256 1.083,0.717c0.285,0.461 0.435,1.045 0.435,1.752c0,0.721 -0.149,1.307 -0.435,1.771c-0.301,0.464 -0.66,0.704 -1.096,0.704s-0.795,-0.226 -1.095,-0.69s-0.435,-1.05 -0.435,-1.754c0,-0.705 0.135,-1.291 0.435,-1.74c0.284,-0.45 0.646,-0.69 1.081,-0.721l0.027,-0.039z"/>
 </g>
</svg>